<svg width="30" height="30" viewBox="0 0 30 30" fill="none" xmlns="http://www.w3.org/2000/svg">
<g clip-path="url(#clip0_4465_31542)">
<path fill-rule="evenodd" clip-rule="evenodd" d="M24.9367 29.139C26.0947 30.2906 27.9654 30.2906 29.1234 29.139C29.6842 28.5877 30 27.8343 30 27.048C30 26.2616 29.6842 25.5083 29.1234 24.957L23.0093 18.8507C26.268 13.4889 25.0108 6.53808 20.0802 2.65753C15.1497 -1.22303 8.09809 -0.811689 3.65219 3.61582C-0.793706 8.04333 -1.23427 15.0932 2.62583 20.0398C6.48592 24.9863 13.4315 26.2724 18.8067 23.0359L24.9367 29.139ZM9.42625 5.31277C12.3088 4.12176 15.625 4.78594 17.8265 6.99519C20.803 10.0102 20.803 14.8577 17.8265 17.8727C15.625 20.082 12.3088 20.7462 9.42625 19.5551C6.54372 18.3641 4.6635 15.5529 4.6635 12.434C4.6635 9.31507 6.54372 6.50379 9.42625 5.31277Z" fill="#333333"/>
</g>
<defs>
<clipPath id="clip0_4465_31542">
<rect width="30" height="30" fill="white"/>
</clipPath>
</defs>
</svg>
