<svg width="30" height="30" viewBox="0 0 30 30" fill="none" xmlns="http://www.w3.org/2000/svg">
<g clip-path="url(#clip0_1347_9042)">
<path fill-rule="evenodd" clip-rule="evenodd" d="M24.9367 29.1446C26.0947 30.2962 27.9654 30.2962 29.1234 29.1446C29.6842 28.5933 30 27.8399 30 27.0536C30 26.2673 29.6842 25.5139 29.1234 24.9626L23.0093 18.8563C26.268 13.4945 25.0108 6.5437 20.0802 2.66314C15.1497 -1.21742 8.09809 -0.806073 3.65219 3.62144C-0.793706 8.04895 -1.23427 15.0988 2.62583 20.0454C6.48592 24.9919 13.4315 26.278 18.8067 23.0415L24.9367 29.1446ZM9.42625 5.31839C12.3088 4.12737 15.625 4.79155 17.8265 7.00081C20.803 10.0158 20.803 14.8634 17.8265 17.8783C15.625 20.0876 12.3088 20.7518 9.42625 19.5608C6.54372 18.3697 4.6635 15.5585 4.6635 12.4396C4.6635 9.32068 6.54372 6.50941 9.42625 5.31839Z" fill="#C1C1C1"/>
</g>
<defs>
<clipPath id="clip0_1347_9042">
<rect width="30" height="30" fill="white" transform="translate(0 0.00561523)"/>
</clipPath>
</defs>
</svg>
