<svg width="12" height="8" viewBox="0 0 12 8" fill="none" xmlns="http://www.w3.org/2000/svg">
<path fill-rule="evenodd" clip-rule="evenodd" d="M2.60678 7.10625C2.12125 7.61009 1.33405 7.61009 0.848523 7.10625C0.362993 6.60242 0.362992 5.78554 0.848522 5.28171L5.04068 0.93149C5.06045 0.907776 5.08118 0.884632 5.10288 0.862113C5.34764 0.608117 5.66908 0.482167 5.98989 0.484262C6.30699 0.485113 6.62384 0.61107 6.86578 0.862134C6.88738 0.884554 6.90803 0.907593 6.92771 0.931197L11.1201 5.28168C11.6057 5.78552 11.6057 6.6024 11.1201 7.10623C10.6346 7.61007 9.8474 7.61007 9.36187 7.10623L5.98434 3.60136L2.60678 7.10625Z" fill="#0071BD"/>
</svg>
