<svg width="12" height="8" viewBox="0 0 12 8" fill="none" xmlns="http://www.w3.org/2000/svg">
<path fill-rule="evenodd" clip-rule="evenodd" d="M2.60678 0.862007C2.12125 0.358172 1.33405 0.358172 0.848523 0.862007C0.362993 1.36584 0.362992 2.18272 0.848522 2.68656L5.04068 7.03677C5.06045 7.06049 5.08118 7.08363 5.10288 7.10615C5.34764 7.36014 5.66908 7.48609 5.98989 7.484C6.30699 7.48315 6.62384 7.35719 6.86578 7.10613C6.88738 7.08371 6.90803 7.06067 6.92771 7.03707L11.1201 2.68658C11.6057 2.18274 11.6057 1.36586 11.1201 0.862028C10.6346 0.358193 9.8474 0.358192 9.36187 0.862027L5.98434 4.3669L2.60678 0.862007Z" fill="#1CABE2"/>
</svg>
